<?xml version="1.0" ?><!DOCTYPE svg  PUBLIC '-//W3C//DTD SVG 1.1//EN'  'http://www.w3.org/Graphics/SVG/1.1/DTD/svg11.dtd'><svg enable-background="new 0 0 64 64" height="64px" id="Layer_1" version="1.1" viewBox="0 0 64 64" width="64px" xml:space="preserve" xmlns="http://www.w3.org/2000/svg" xmlns:xlink="http://www.w3.org/1999/xlink"><g><path d="M31.999,36.97c2.739,0,4.972-2.229,4.972-4.97c0-1.082-0.354-2.081-0.941-2.897C35.126,27.851,33.658,27.03,32,27.03   c-1.659,0-3.126,0.82-4.031,2.072c-0.588,0.816-0.939,1.815-0.94,2.897C27.028,34.74,29.259,36.97,31.999,36.97z"/><polygon points="42.852,25.92 42.852,21.754 42.852,21.134 42.228,21.136 38.064,21.149 38.081,25.936  "/><path d="M32,7.174C18.311,7.174,7.174,18.311,7.174,32c0,13.689,11.137,24.826,24.826,24.826c13.689,0,24.826-11.137,24.826-24.826   C56.826,18.311,45.689,7.174,32,7.174z M46.119,29.103v11.56c0,3.011-2.448,5.458-5.457,5.458H23.338   c-3.01,0-5.457-2.447-5.457-5.458v-11.56v-5.764c0-3.01,2.447-5.457,5.457-5.457h17.323c3.01,0,5.458,2.447,5.458,5.457V29.103z"/><path d="M39.722,32c0,4.257-3.463,7.723-7.722,7.723S24.278,36.257,24.278,32c0-1.024,0.204-2.003,0.568-2.897h-4.215v11.56   c0,1.494,1.213,2.704,2.706,2.704h17.323c1.493,0,2.706-1.21,2.706-2.704v-11.56h-4.216C39.515,29.997,39.722,30.976,39.722,32z"/></g></svg>